<?xml version="1.0" encoding="utf-8"?>
<!-- Generator: Adobe Illustrator 16.0.0, SVG Export Plug-In . SVG Version: 6.00 Build 0)  -->
<!DOCTYPE svg PUBLIC "-//W3C//DTD SVG 1.1//EN" "http://www.w3.org/Graphics/SVG/1.1/DTD/svg11.dtd">
<svg version="1.1" id="ice_cream" xmlns="http://www.w3.org/2000/svg" xmlns:xlink="http://www.w3.org/1999/xlink" x="0px" y="0px"
	 width="212px" height="311px" viewBox="0 0 212 311" enable-background="new 0 0 212 311" xml:space="preserve">
<g id="ice_cream_parts">
	<path fill="#FC7E9C" d="M107,20.636c41.422,0,75,33.579,75,75c0,41.422-33.578,75-75,75s-75-33.579-75-75
		C32,54.215,65.578,20.636,107,20.636"/>
	<path fill="#004463" d="M107,184.272c-49.092,0-88.636-39.544-88.636-88.636S57.908,7,107,7c49.092,0,88.637,39.544,88.637,88.636
		S156.092,184.272,107,184.272 M107,20.636c-41.592,0-75,33.409-75,75c0,41.592,33.408,75,75,75c41.588,0,75-33.409,75-75
		C182,54.045,148.588,20.636,107,20.636"/>
	<path fill="#FC0001" d="M133.587,25.41c21.141,13.637,34.776,36.811,34.776,63.408c0,41.585-33.411,75-75,75
		c-9.545,0-18.411-2.044-26.59-4.774c11.589,7.504,25.225,11.593,40.227,11.593c41.588,0,75-33.416,75-75
		C182,63.593,161.545,36.32,133.587,25.41"/>
	<path fill="#FC0001" d="M93.364,34.272c3.762,0,6.818,3.046,6.818,6.818s-3.056,6.818-6.818,6.818
		c-3.762,0-6.818-3.046-6.818-6.818S89.602,34.272,93.364,34.272"/>
	<path fill="#FC0001" d="M93.364,82c3.762,0,6.818,3.046,6.818,6.818s-3.056,6.818-6.818,6.818c-3.762,0-6.818-3.046-6.818-6.818
		S89.602,82,93.364,82"/>
	<path fill="#FC0001" d="M127.455,75.182c3.762,0,6.817,3.046,6.817,6.818s-3.056,6.818-6.817,6.818
		c-3.763,0-6.818-3.046-6.818-6.818S123.692,75.182,127.455,75.182"/>
	<path fill="#FC0001" d="M66.091,54.728c3.762,0,6.818,3.046,6.818,6.818s-3.056,6.818-6.818,6.818
		c-3.762,0-6.818-3.046-6.818-6.818S62.329,54.728,66.091,54.728"/>
	<path fill="#FC0001" d="M161.545,88.818c3.763,0,6.818,3.046,6.818,6.818s-3.056,6.818-6.818,6.818
		c-3.762,0-6.817-3.046-6.817-6.818S157.783,88.818,161.545,88.818"/>
	<path fill="#FC0001" d="M52.455,88.818c3.762,0,6.818,3.046,6.818,6.818s-3.056,6.818-6.818,6.818s-6.818-3.046-6.818-6.818
		S48.692,88.818,52.455,88.818"/>
	<path fill="#FC0001" d="M134.272,41.091c3.763,0,6.818,3.046,6.818,6.818s-3.056,6.818-6.818,6.818
		c-3.762,0-6.817-3.046-6.817-6.818S130.511,41.091,134.272,41.091"/>
	<path fill="#FFCB5B" d="M37.453,193.82c0,2.045,2.044,4.089,4.774,4.089c8.862,0,17.045,6.818,18.407,15.681l10.228,73.635
		c0.682,3.409,3.409,6.139,6.818,6.139h57.958c3.409,0,6.132-2.729,6.818-6.139l10.228-73.635
		c2.044-8.862,10.227-15.681,19.089-15.681c2.724,0,4.089-2.044,4.774-4.089l4.768-36.82H32.679L37.453,193.82z"/>
	<path fill="#D88E23" d="M175.182,157h-7.497H32.683l0.683,6.818h117.273c8.177,0,14.316,7.497,13.637,15.001l-0.686,7.497
		c0,2.73-2.045,4.096-4.774,4.096c-8.862,0-17.046,6.818-18.403,15.68l-0.687,5.453H59.955c0,0.68,0.683,1.365,0.683,2.045
		l0.679,4.773h62.049c8.177,0,14.995,7.498,13.637,15.681l-6.818,47.048c-0.686,3.409-3.409,6.133-6.818,6.133H70.865v0.686
		c0.679,3.409,3.409,6.133,6.818,6.133h57.955c3.409,0,6.132-2.724,6.818-6.133l10.228-73.635
		c2.044-9.548,9.541-16.366,19.089-16.366c2.73,0,4.774-2.044,4.774-4.089L181.32,157H175.182z"/>
	<path fill="#014463" d="M193.592,145.404c-0.679-1.361-2.729-2.037-4.773-2.037H25.182c-2.044,0-4.088,0.676-4.771,2.037
		c-1.365,2.048-2.047,3.409-2.047,5.457l5.457,44.319c1.361,9.548,8.862,16.365,18.407,16.365c2.729,0,4.774,2.045,4.774,4.089
		l10.227,73.642C58.594,299.503,67.456,307,77.683,307h57.955c10.228,0,19.09-7.497,20.454-17.725l10.228-73.642
		c0.68-2.724,2.73-4.089,4.774-4.089c9.541,0,17.045-6.817,18.41-16.365l5.453-44.319
		C195.637,148.813,194.957,147.452,193.592,145.404 M176.547,193.82c0,2.045-2.044,4.089-4.774,4.089
		c-8.862,0-17.045,6.818-18.41,15.681l-10.228,73.635c-0.679,3.409-3.409,6.139-6.818,6.139H78.366
		c-3.409,0-6.136-2.729-6.818-6.139L61.32,213.59c0-0.68-0.683-1.365-0.683-2.045h80.453c4.095,0,6.818-2.729,6.818-6.817
		c0-4.089-2.724-6.818-6.818-6.818H42.228c-2.727,0-4.088-2.044-4.771-4.089L32.683,157h147.952L176.547,193.82z"/>
	<path fill="#FFCB5B" d="M21.772,143.364h170.455c2.044,0,3.409-1.365,3.409-3.409c0-2.044-1.365-3.409-3.409-3.409H21.772
		c-2.044,0-3.409,1.365-3.409,3.409C18.364,141.999,19.729,143.364,21.772,143.364"/>
	<path fill="#004463" d="M192.228,157H21.772c-9.544,0-17.045-7.5-17.045-17.045s7.5-17.045,17.045-17.045h170.455
		c9.548,0,17.045,7.5,17.045,17.045S201.775,157,192.228,157 M21.772,136.545c-2.044,0-3.409,1.365-3.409,3.409
		c0,2.044,1.365,3.409,3.409,3.409h170.455c2.044,0,3.409-1.365,3.409-3.409c0-2.044-1.365-3.409-3.409-3.409H21.772z"/>
	<path fill="#FC7E9C" d="M72.909,116.091V157c0,7.497,6.136,13.637,13.636,13.637s13.636-6.14,13.636-13.637
		c0-7.5,6.136-13.636,13.637-13.636c7.497,0,13.637,6.136,13.637,13.636v13.637c0,7.497,6.139,13.636,13.636,13.636
		s13.637-6.139,13.637-13.636v-54.546H72.909z"/>
	<path fill="#014463" d="M154.728,109.272c-4.089,0-6.818,2.727-6.818,6.818v54.546c0,4.088-2.729,6.818-6.818,6.818
		c-4.088,0-6.818-2.73-6.818-6.818V157v-20.455c0-4.091-2.729-6.818-6.817-6.818c-4.089,0-6.818,2.727-6.818,6.818v1.365
		c-2.045-0.682-4.089-1.365-6.818-1.365c-2.73,0-4.774,0.683-6.818,1.365v-21.819c0-4.091-2.727-6.818-6.818-6.818
		c-4.091,0-6.818,2.727-6.818,6.818V157c0,4.088-2.727,6.818-6.818,6.818c-4.091,0-6.818-2.73-6.818-6.818v-40.909
		c0-4.091-2.727-6.818-6.818-6.818s-6.818,2.727-6.818,6.818V157c0,11.592,8.862,20.455,20.455,20.455S107,168.592,107,157
		c0-4.092,2.73-6.818,6.818-6.818s6.818,2.727,6.818,6.818v13.637c0,11.592,8.862,20.454,20.454,20.454
		c11.593,0,20.454-8.862,20.454-20.454v-54.546C161.545,112,158.815,109.272,154.728,109.272"/>
	<path fill="#FC0001" d="M141.091,177.455L141.091,177.455v-54.546c0-4.092,2.729-6.818,6.818-6.818v54.546
		C147.909,174.725,145.18,177.455,141.091,177.455"/>
	<path fill="#FC0001" d="M86.545,163.818L86.545,163.818v-40.909c0-4.092,2.727-6.818,6.818-6.818V157
		C93.364,161.088,90.637,163.818,86.545,163.818"/>
	<rect x="161.545" y="136.545" fill="#F6B545" width="6.818" height="6.818"/>
</g>
</svg>
