<?xml version="1.0" encoding="utf-8"?>
<!-- Generator: Adobe Illustrator 16.0.0, SVG Export Plug-In . SVG Version: 6.00 Build 0)  -->
<!DOCTYPE svg PUBLIC "-//W3C//DTD SVG 1.1//EN" "http://www.w3.org/Graphics/SVG/1.1/DTD/svg11.dtd">
<svg version="1.1" id="martini" xmlns="http://www.w3.org/2000/svg" xmlns:xlink="http://www.w3.org/1999/xlink" x="0px" y="0px"
	 width="193.5px" height="217px" viewBox="0 0 193.5 217" enable-background="new 0 0 193.5 217" xml:space="preserve">
<g id="parts_group">
	<path fill="#ECEFF9" d="M159.7,39.33v4.55c0,7.27-3.181,14.09-9.08,18.63l-58.17,47.71c-2.73,2.27-7.72,2.27-10.45,0L23.38,62.51
		c-5.9-4.54-9.08-11.36-9.08-18.63v-4.55H159.7z"/>
	<path fill="#004463" d="M164.248,30.247H9.752c-2.727,0-4.544,1.817-4.544,4.544v9.088c0,9.998,4.544,19.539,12.27,25.902
		l58.617,47.712c1.817,1.362,4.089,2.725,6.361,3.182v73.157c0,4.996-4.089,9.088-9.088,9.088H59.736
		c-2.727,0-4.544,1.819-4.544,4.544s1.817,4.544,4.544,4.544h13.632h27.264h13.632c2.725,0,4.544-1.819,4.544-4.544
		s-1.819-4.544-4.544-4.544h-13.632c-4.996,0-9.088-4.092-9.088-9.088v-73.157c2.272-0.457,4.544-1.819,6.363-3.182l58.615-47.712
		c7.726-6.363,12.27-15.904,12.27-25.902v-9.088C168.792,32.063,166.973,30.247,164.248,30.247 M159.704,43.878
		c0,7.271-3.182,14.087-9.088,18.631l-58.62,47.712c-2.725,2.27-7.268,2.27-10.45,0L23.384,62.509
		c-5.454-4.544-9.088-11.36-9.088-18.631v-4.544h145.408V43.878z"/>
	<path fill="#B9D5EA" d="M123.352,39.334v4.544c0,7.271-3.182,14.087-9.088,18.631L74.73,104.313l6.816,5.454
		c2.727,2.272,7.725,2.272,10.45,0l58.62-47.257c5.453-4.544,9.088-11.36,9.088-18.631v-4.544H123.352z"/>
	<path fill="#70B7E5" d="M18.385,57.511c1.362,1.817,2.727,3.634,4.544,4.999l58.617,47.712c2.727,2.27,7.725,2.27,10.45,0
		l58.62-47.712c1.814-1.365,3.182-3.182,4.544-4.999H18.385z"/>
	<path fill="#4C9CD6" d="M119.266,57.511c-1.367,1.817-2.729,3.634-4.545,4.999l-39.536,41.804l6.816,5.454
		c2.727,2.272,7.728,2.272,10.452,0l58.163-47.257c1.819-1.365,3.182-3.182,4.544-4.999H119.266z"/>
	<g id="olive_group">
		<path id="olive" fill="#90C962" d="M100.632,71.143c5.015,0,9.088,4.071,9.088,9.088c0,5.021-4.073,9.088-9.088,9.088
			s-9.088-4.067-9.088-9.088C91.544,75.214,95.617,71.143,100.632,71.143"/>
		<path id="toothpick" fill="#004463" d="M188.5,5.88c-0.07-0.1-0.21-0.13-0.31-0.06c0,0-0.49,0.31-1.4,0.89
			c-0.89,0.59-2.23,1.44-3.89,2.57c-3.33,2.25-8.021,5.54-13.53,9.62c-2.76,2.03-5.73,4.26-8.84,6.66c-3.11,2.39-6.36,4.95-9.7,7.62
			c-3.34,2.67-6.75,5.48-10.21,8.33c-3.45,2.89-6.94,5.82-10.39,8.8c-1.73,1.48-3.45,2.97-5.15,4.48c-1.71,1.5-3.42,2.98-5.08,4.49
			c-2.64,2.35-5.22,4.7-7.73,7.02c-3.159-2.65-7.22-4.25-11.64-4.25c-10,0-18.17,8.18-18.17,18.18c0,4.35,1.55,8.36,4.12,11.5
			c-1.72,1.86-3.21,3.5-4.45,4.89c-2.5,2.82-3.94,4.57-4.11,4.79c0.23-0.14,2.17-1.32,5.33-3.39c1.6-1.05,3.51-2.34,5.68-3.84
			c3.149,2.64,7.2,4.23,11.6,4.23c10,0,18.18-8.18,18.18-18.18c0-2.6-0.55-5.08-1.55-7.32c2.79-2.26,5.641-4.59,8.49-6.98
			c1.74-1.43,3.45-2.91,5.18-4.38c1.73-1.46,3.46-2.95,5.17-4.46c3.45-2.98,6.851-6.01,10.2-9c3.33-3.02,6.601-5.99,9.72-8.91
			c3.131-2.92,6.12-5.77,8.94-8.51c2.82-2.72,5.45-5.34,7.86-7.78c4.83-4.87,8.76-9.04,11.47-12.01c1.36-1.47,2.39-2.68,3.11-3.48
			c0.699-0.81,1.08-1.25,1.08-1.25C188.54,6.08,188.55,5.97,188.5,5.88z M100.63,89.32c-1.3,0-2.54-0.28-3.67-0.78
			c-1.65-0.74-3.05-1.95-4.02-3.48c-0.891-1.4-1.4-3.06-1.4-4.83c0-5,4.1-9.09,9.09-9.09c1.811,0,3.5,0.54,4.92,1.46
			c2.17,1.41,3.71,3.71,4.08,6.37c0.061,0.41,0.09,0.83,0.09,1.26C109.72,85.23,105.63,89.32,100.63,89.32z"/>
	</g>
	<g id="bubbles">
		<path fill="#90CEF1" d="M78,59.117c-2.662,0-4.883,2.221-4.883,4.883s2.221,4.883,4.883,4.883s4.883-2.221,4.883-4.883
			S80.662,59.117,78,59.117z"/>
		<path fill="#90CEF1" d="M57,66.099c-6.751,0-6.751,10.469,0,10.469S63.751,66.099,57,66.099z"/>
		<path fill="#90CEF1" d="M72,78.758c-4.182,0-4.182,6.484,0,6.484S76.182,78.758,72,78.758z"/>
		<path fill="#90CEF1" d="M39,65.651c-1.31,0-1.31,2.031,0,2.031S40.31,65.651,39,65.651z"/>
		<path fill="#90CEF1" d="M133.667,61.057c-5.945,0-5.945,9.219,0,9.219S139.612,61.057,133.667,61.057z"/>
		<path fill="#90CEF1" d="M87.334,101.419c-2.469,0-2.469,3.828,0,3.828S89.803,101.419,87.334,101.419z"/>
	</g>
</g>
</svg>
