<?xml version="1.0" encoding="utf-8"?>
<!-- Generator: Adobe Illustrator 16.0.0, SVG Export Plug-In . SVG Version: 6.00 Build 0)  -->
<!DOCTYPE svg PUBLIC "-//W3C//DTD SVG 1.1//EN" "http://www.w3.org/Graphics/SVG/1.1/DTD/svg11.dtd">
<svg version="1.1" id="strawberry" xmlns="http://www.w3.org/2000/svg" xmlns:xlink="http://www.w3.org/1999/xlink" x="0px" y="0px"
	 width="200px" height="311px" viewBox="0 0 200 311" enable-background="new 0 0 200 311" xml:space="preserve">
<g id="parts_group">
	<path fill="#F04D4E" d="M70.001,278.048c5.453,8.862,17.046,14.995,29.999,14.315c12.957,0,24.543-5.453,30.002-14.315
		c24.543-39.55,51.815-115.229,51.815-141.821c0-29.32-30.003-34.767-81.817-34.767c-51.818,0-81.817,5.446-81.817,34.767
		C18.183,162.819,45.455,238.498,70.001,278.048"/>
	<path fill="#004463" d="M100.679,306H100c-17.728,0-33.408-8.184-41.591-21.134C32.502,243.271,4.547,165.55,4.547,136.229
		C4.547,87.82,64.545,87.82,100,87.82s95.453,0,95.453,48.409c0,28.634-27.951,106.363-53.865,148.637
		C134.091,297.816,117.725,306,100.679,306 M100,292.363c12.957,0,24.543-5.453,30.002-14.315
		c24.543-39.55,51.815-115.229,51.815-141.818c0-29.32-30.003-34.773-81.817-34.773c-51.818,0-81.817,5.453-81.817,34.773
		c0,26.59,27.272,101.589,51.818,141.133C75.454,286.91,87.047,292.363,100,292.363"/>
	<path fill="#8B293A" d="M167.495,111.684c0,2.044,0.686,3.409,0.686,5.453c0,27.272-28.637,105.681-53.18,146.59
		c-5.46,9.548-17.728,15.001-31.363,15.001c-4.774,0-10.228-0.68-14.319-2.044c0,0.679,0.683,0.679,0.683,1.364
		c5.453,8.862,17.046,14.315,29.999,14.315c12.95,0,24.543-5.453,29.996-14.315c24.549-39.55,51.821-115.229,51.821-141.818
		C181.817,124.638,177.043,116.458,167.495,111.684"/>
	<path fill="#90DD62" d="M136.135,76.229c7.497-8.184,11.592-18.411,11.592-29.317c-10.227,0-21.14,4.088-29.316,11.589
		c-7.504,8.19-11.592,18.417-11.592,29.32C117.725,87.82,127.951,83.735,136.135,76.229"/>
	<path fill="#4C9400" d="M107.504,81.002c10.221,0,20.447-4.092,28.631-11.592c6.139-6.136,10.227-13.636,11.592-21.816h0.68
		c0,10.91-4.089,21.137-11.586,29.316c-8.869,6.818-19.096,10.91-30.002,10.91C106.818,85.776,106.818,83.046,107.504,81.002"/>
	<path fill="#90DD62" d="M93.182,87.82c0-10.91-4.091-21.137-11.592-29.316c-8.18-7.5-19.089-11.592-29.316-11.592
		c0,10.91,4.092,21.137,11.592,29.317C72.045,83.729,82.955,87.82,93.182,87.82"/>
	<path fill="#4C9400" d="M81.59,58.504c-1.365-1.365-2.044-2.044-3.409-3.409c3.409,4.774,6.136,10.227,7.501,15.681
		c1.361,5.456-3.409,9.548-8.865,8.865c-5.454-1.372-10.907-4.092-15.681-7.5c0.683,1.365,2.044,2.72,3.409,3.409
		c7.5,7.501,18.41,11.592,29.316,11.592C93.182,76.914,89.091,66.687,81.59,58.504"/>
	<path fill="#A83540" d="M100,142.365c3.762,0,6.818,3.046,6.818,6.818c0,3.771-3.057,6.818-6.818,6.818s-6.818-3.047-6.818-6.818
		C93.182,145.411,96.238,142.365,100,142.365"/>
	<path fill="#A83540" d="M140.908,142.365c3.763,0,6.818,3.046,6.818,6.818c0,3.771-3.056,6.818-6.818,6.818
		c-3.762,0-6.817-3.047-6.817-6.818C134.091,145.411,137.146,142.365,140.908,142.365"/>
	<path fill="#A83540" d="M59.092,142.365c3.762,0,6.817,3.046,6.817,6.818c0,3.771-3.056,6.818-6.817,6.818
		c-3.763,0-6.818-3.047-6.818-6.818C52.273,145.411,55.329,142.365,59.092,142.365"/>
	<path fill="#A83540" d="M111,196.91c3.762,0,6.818,3.049,6.818,6.818c0,3.769-3.057,6.818-6.818,6.818s-6.818-3.05-6.818-6.818
		C104.182,199.959,107.238,196.91,111,196.91"/>
	<path fill="#A83540" d="M100,251.455c3.762,0,6.818,3.049,6.818,6.818c0,3.769-3.057,6.817-6.818,6.817s-6.818-3.049-6.818-6.817
		C93.182,254.504,96.238,251.455,100,251.455"/>
	<path fill="#790000" d="M150.408,196.91c3.763,0,6.818,3.049,6.818,6.818c0,3.769-3.056,6.818-6.818,6.818
		c-3.762,0-6.817-3.05-6.817-6.818C143.591,199.959,146.646,196.91,150.408,196.91"/>
	<path fill="#A83540" d="M59.092,196.91c3.762,0,6.817,3.049,6.817,6.818c0,3.769-3.056,6.818-6.817,6.818
		c-3.763,0-6.818-3.05-6.818-6.818C52.273,199.959,55.329,196.91,59.092,196.91"/>
	<path fill="#A83540" d="M120.454,169.638c3.763,0,6.818,3.05,6.818,6.818s-3.056,6.817-6.818,6.817
		c-3.762,0-6.817-3.049-6.817-6.817S116.692,169.638,120.454,169.638"/>
	<path fill="#790000" d="M161.363,169.638c3.762,0,6.817,3.05,6.817,6.818s-3.056,6.817-6.817,6.817s-6.818-3.049-6.818-6.817
		S157.602,169.638,161.363,169.638"/>
	<path fill="#A83540" d="M79.546,169.638c3.762,0,6.818,3.05,6.818,6.818s-3.057,6.817-6.818,6.817s-6.818-3.049-6.818-6.817
		S75.784,169.638,79.546,169.638"/>
	<path fill="#A83540" d="M38.637,169.638c3.763,0,6.818,3.05,6.818,6.818s-3.056,6.817-6.818,6.817
		c-3.762,0-6.817-3.049-6.817-6.817S34.875,169.638,38.637,169.638"/>
	<path fill="#A83540" d="M120.454,224.183c3.763,0,6.818,3.05,6.818,6.817c0,3.77-3.056,6.818-6.818,6.818
		c-3.762,0-6.817-3.049-6.817-6.818C113.637,227.232,116.692,224.183,120.454,224.183"/>
	<path fill="#A83540" d="M79.546,224.183c3.762,0,6.818,3.05,6.818,6.817c0,3.77-3.057,6.818-6.818,6.818s-6.818-3.049-6.818-6.818
		C72.728,227.232,75.784,224.183,79.546,224.183"/>
	<path fill="#90DD62" d="M75.454,105.545c2.727,0,5.453,1.365,6.136,4.098c2.727,6.818,8.865,13.636,17.728,18.407
		c8.866-4.771,14.998-10.913,17.728-18.407c1.365-3.409,5.453-5.457,8.862-4.098c8.862,3.409,18.41,4.774,27.952,4.098
		c0-1.372,0-2.733-0.68-4.098c-15.001-3.409-34.77-4.092-53.18-4.092s-38.182,0.683-53.862,4.781c0,1.362-0.683,2.72-0.683,4.085
		c9.545,0.686,19.09-1.365,27.955-4.085C74.089,105.545,74.771,105.545,75.454,105.545"/>
	<path fill="#014463" d="M166.137,98.727c-0.686-2.044-2.051-3.409-4.095-4.091c-6.132-2.038-13.636-3.409-21.134-4.085
		c1.365-1.362,3.409-2.733,4.774-4.095c12.271-12.275,17.725-29.32,14.994-45.683c-0.679-2.72-2.723-5.454-5.453-5.454
		c-16.359-2.723-34.09,3.409-45.683,14.998c-0.679,0.683-1.357,1.372-2.044,2.733v-6.143C107.497,24.417,89.091,6,66.592,6
		c-4.091,0-6.817,2.733-6.817,6.818c0,4.091,2.727,6.818,6.817,6.818c14.998,0,27.272,12.275,27.272,27.272v4.781
		C93.182,51,92.5,49.642,91.817,48.956c-12.271-12.275-29.316-17.721-45.68-15.001c-2.729,0.689-5.456,2.727-5.456,5.46
		c-2.727,16.359,3.409,34.09,15.001,45.676c1.361,1.365,3.409,2.727,4.771,4.098c-7.497,0.676-14.998,2.038-21.134,4.085
		c-2.047,0.686-3.409,2.044-4.091,4.095c-2.048,6.818-2.727,12.951-1.365,19.093c0.683,2.72,2.727,4.771,6.136,5.447
		c10.909,1.372,23.184,0,33.411-2.727c5.453,8.869,13.637,16.363,24.543,21.143c0,2.038,1.364,2.038,2.047,2.038
		c0.679,0,2.044,0,2.723-0.676c10.914-5.459,19.775-12.96,24.55-21.14c10.906,3.409,22.498,4.095,33.404,2.733
		c2.73,0,5.46-2.733,6.14-5.457C168.86,111.681,168.181,104.862,166.137,98.727 M118.41,58.507
		c8.177-7.507,19.09-11.599,29.316-11.599c0,10.91-4.095,21.137-11.592,29.32c-8.184,7.504-18.41,11.588-29.316,11.588
		C106.818,76.914,110.906,66.687,118.41,58.507 M52.273,46.908c10.228,0,21.137,4.092,29.316,11.599
		c7.501,8.18,11.592,18.407,11.592,29.31c-10.227,0-21.137-4.084-29.319-11.588C56.365,68.045,52.273,57.818,52.273,46.908
		 M126.587,105.545c-3.409-1.358-7.497,0.689-8.862,4.098c-2.724,6.818-8.862,13.636-17.725,18.407
		c-8.865-4.771-15.001-10.913-17.728-18.407c-1.365-2.733-3.409-4.098-6.136-4.098c-0.683,0-1.365,0-2.048,0.689
		c-8.861,3.409-18.406,4.771-27.951,4.085c0-1.365,0-2.723,0.68-4.085c15.684-4.098,36.138-4.781,53.861-4.781
		c17.731,0,38.186,0.683,53.866,4.781c0,1.362,0.679,2.72,0.679,4.085C144.997,110.319,135.455,108.954,126.587,105.545"/>
	<path fill="#4C9400" d="M117.73,109.64c1.359-3.409,5.453-4.774,8.863-4.098c8.861,3.409,18.41,4.781,27.951,4.098
		c0-1.365,0-2.727-0.68-4.098c-12.271-3.409-27.958-4.085-42.273-4.764c-6.139,0-11.592,4.764-11.592,11.582v15.008
		C108.862,123.276,115.001,116.458,117.73,109.64"/>
</g>
</svg>
